<svg version="1.1" xmlns="http://www.w3.org/2000/svg" xmlns:xlink="http://www.w3.org/1999/xlink" width="319.81983" height="170.19504" viewBox="0,0,319.81983,170.19504"><defs><linearGradient x1="276.39622" y1="171.77357" x2="182.42931" y2="129.17227" gradientUnits="userSpaceOnUse" id="color-1"><stop offset="0" stop-color="#00b5ff"/><stop offset="1" stop-color="#00e6ff"/></linearGradient><linearGradient x1="80.0901" y1="222.17974" x2="399.90992" y2="222.17974" gradientUnits="userSpaceOnUse" id="color-2"><stop offset="0" stop-color="#008aff"/><stop offset="1" stop-color="#00b7ff"/></linearGradient><linearGradient x1="182.15588" y1="181.75856" x2="163.20308" y2="181.75856" gradientUnits="userSpaceOnUse" id="color-3"><stop offset="0" stop-color="#00d0ff"/><stop offset="1" stop-color="#00e6ff"/></linearGradient><linearGradient x1="304.28641" y1="113.36754" x2="285.33361" y2="113.36754" gradientUnits="userSpaceOnUse" id="color-4"><stop offset="0" stop-color="#00b5ff"/><stop offset="1" stop-color="#00cdff"/></linearGradient></defs><g transform="translate(-80.09008,-94.90248)"><g data-paper-data="{&quot;isPaintingLayer&quot;:true}" fill-rule="nonzero" stroke-width="0" stroke-linejoin="miter" stroke-miterlimit="10" stroke-dasharray="" stroke-dashoffset="0" style="mix-blend-mode: normal"><path d="M193.53023,135.35993c7.40657,-4.36096 8.93607,-5.71365 13.5133,-9.87447c4.57724,-4.16078 5.39323,-4.94017 10.43882,-11.89845c5.93832,-8.18945 10.44371,-18.68071 14.95236,-18.68453c4.05191,0.04967 6.31488,9.40548 10.79739,17.60211c4.35053,7.95533 4.61154,8.90393 9.83726,15.06671c5.22573,6.16278 7.47791,9.11733 14.98343,14.2047c7.73319,5.24173 16.90023,7.28037 16.52593,11.68587c-0.40217,3.75125 -12.05158,8.30387 -20.76868,13.43641c-7.40659,4.36096 -8.23928,4.52565 -13.16564,8.50389c-4.92635,3.97824 -5.26174,4.47945 -10.30731,11.43774c-5.93832,8.18949 -11.54796,18.62113 -15.32045,18.66471c-4.03208,-0.41774 -5.94681,-9.3856 -10.4293,-17.58225c-4.35053,-7.95529 -4.88259,-9.22858 -9.85715,-14.69864c-4.97456,-5.47003 -7.22096,-7.24629 -14.72646,-12.33367c-7.73319,-5.24173 -16.90023,-7.28037 -16.52593,-11.68587c0.40214,-3.75125 11.33525,-8.71168 20.05235,-13.84425z" data-paper-data="{&quot;index&quot;:null}" fill="url(#color-1)" stroke="#000000" stroke-linecap="round"/><path d="M222.58191,143.2065c-3.39928,0 -3.39928,-3.39928 -3.39928,-3.39928l0.0052,-3.43791c-0.34101,-3.06913 -0.45533,-6.1647 -0.45844,-9.25273c0,0 0,-3.39928 3.39928,-3.39928c3.39928,0 3.39928,3.39928 3.39928,3.39928c-0.00321,2.96269 0.12086,5.9322 0.44804,8.87676l0.0052,3.81388c0,0 0,3.39928 -3.39928,3.39928z" fill="#005d82" stroke="none" stroke-linecap="butt"/><path d="M241.23588,152.22236c0.25129,0.49905 -0.32594,1.07097 -0.54296,1.58586c-0.34237,0.81229 -0.96808,1.91305 -1.50026,2.60945c-1.23746,1.61935 -2.88206,3.80213 -4.71344,4.78909c-2.01783,1.08743 -4.45121,1.37616 -6.60542,2.09544c-3.42913,1.00354 -8.46444,0.09373 -9.95369,-3.64415c-1.14869,-2.88309 -0.17388,-6.62971 -0.1779,-9.64137c0,0 0,-0.49537 0.36824,-0.74964c0.45102,-0.51479 1.09251,-0.14824 1.09251,-0.14824c1.24007,0.71048 2.38376,1.56433 3.72317,2.10161c2.71053,1.0873 5.84945,1.36729 8.74104,1.3661c2.02783,-0.00083 3.85636,0.06674 5.78114,-0.6601l0.74844,-0.25014c0,0 0.06624,-0.02209 0.16791,-0.03543c1.00263,-0.49908 2.1789,-0.79341 2.87122,0.58148z" fill="#005d82" stroke="none" stroke-linecap="butt"/><path d="M80.0901,257.46496c0,-5.27764 0,-20.8828 0,-29.375c0,-3.4003 2.74149,-5.66915 5.27989,-5.6774c4.23843,-0.01378 17.72413,-0.05761 26.74958,-0.08695c4.9537,-0.0161 8.55651,-3.3307 8.54636,-7.94463c-0.01885,-8.57299 -0.04765,-21.6723 -0.05831,-26.52098c-0.00789,-3.58864 3.36083,-7.97866 7.38805,-7.98587c19.36978,-0.03467 169.69138,-0.30411 203.24935,-0.36426c4.25106,-0.00762 6.63196,4.00874 6.63495,7.35103c0.00423,4.74233 0.01608,17.12622 0.02354,25.47893c0.00376,4.20893 4.12758,8.08319 7.95975,8.11674c7.34904,0.06434 33.13504,0.29009 46.25412,0.40494c4.71402,0.04127 7.79254,4.70344 7.79254,7.72845c0,4.96197 0,19.88022 0,29c0,4.35129 -4.45901,7.50756 -8.54017,7.50756c-24.6787,0 -260.77605,-0.10288 -304.37517,-0.12197c-4.45897,-0.00195 -6.90449,-4.71637 -6.90449,-7.51059z" fill="url(#color-2)" stroke="none" stroke-linecap="butt"/><path d="M139.23641,216.98617c-1.65681,0 -3.13121,-0.19387 -4.42322,-0.58161c-1.2844,-0.39565 -2.41681,-0.95748 -3.39722,-1.68548c-0.9804,-0.73591 -1.85821,-1.59843 -2.63341,-2.58757l3.84182,-4.51044c1.102,1.49557 2.23441,2.48865 3.39722,2.97926c1.1704,0.49061 2.30661,0.73591 3.40862,0.73591c0.4864,0 0.92721,-0.05144 1.32241,-0.1543c0.4028,-0.10287 0.7068,-0.273 0.912,-0.51039c0.2128,-0.2453 0.3192,-0.54996 0.3192,-0.91396c0,-0.32444 -0.0912,-0.60139 -0.2736,-0.83087c-0.1748,-0.22948 -0.418,-0.4273 -0.7296,-0.59348c-0.304,-0.17409 -0.6422,-0.32839 -1.0146,-0.46291c-0.3724,-0.14243 -0.7486,-0.25322 -1.12861,-0.33235c-0.3724,-0.07913 -0.7372,-0.16617 -1.09441,-0.26113c-1.29961,-0.3007 -2.43581,-0.68052 -3.40862,-1.13948c-0.9652,-0.45896 -1.77461,-1.001 -2.42821,-1.62613c-0.646,-0.63305 -1.12861,-1.36104 -1.44781,-2.184c-0.3192,-0.83087 -0.4788,-1.76461 -0.4788,-2.80122c0,-1.12365 0.2508,-2.1563 0.7524,-3.09796c0.5092,-0.94165 1.1818,-1.74879 2.01781,-2.42139c0.8436,-0.68052 1.80881,-1.19883 2.89561,-1.55491c1.09441,-0.35609 2.23821,-0.53413 3.43142,-0.53413c1.62641,0 3.01342,0.16617 4.16102,0.49852c1.1476,0.33235 2.11281,0.81109 2.89561,1.43622c0.7828,0.61722 1.45921,1.3373 2.02921,2.16026l-3.89882,3.92883c-0.4636,-0.53017 -0.9652,-0.96539 -1.50481,-1.30565c-0.5396,-0.34818 -1.09821,-0.60535 -1.67581,-0.77152c-0.57,-0.17409 -1.15141,-0.26113 -1.74421,-0.26113c-0.5548,0 -1.0374,0.05935 -1.44781,0.17804c-0.4028,0.11078 -0.7144,0.27696 -0.9348,0.49852c-0.2204,0.21365 -0.3306,0.50248 -0.3306,0.86648c0,0.32444 0.1216,0.60931 0.3648,0.85461c0.2432,0.23739 0.551,0.43522 0.9234,0.59348c0.3724,0.15826 0.7714,0.29278 1.19701,0.40357c0.4332,0.10287 0.8284,0.18596 1.18561,0.24926c1.20841,0.25322 2.31421,0.58161 3.31742,0.98517c1.0032,0.40357 1.88101,0.91 2.63341,1.51931c0.7524,0.60139 1.32621,1.34126 1.72141,2.21961c0.3952,0.87044 0.5928,1.89122 0.5928,3.06235c0,1.71713 -0.4142,3.16918 -1.24261,4.35613c-0.8208,1.17905 -1.93421,2.07322 -3.34022,2.68252c-1.39841,0.60931 -2.97922,0.91396 -4.74242,0.91396zM157.69125,216.64197v-18.2198h-7.01103v-5.88731h20.8051v5.88731h-7.25043v18.2198zM170.4539,216.64197l9.23404,-24.10711h5.28962l9.15424,24.10711h-6.50943l-3.96722,-11.19301c-0.2204,-0.61722 -0.4218,-1.19092 -0.6042,-1.72109c-0.1748,-0.53017 -0.3382,-1.04452 -0.4902,-1.54304c-0.152,-0.50643 -0.3002,-1.02474 -0.4446,-1.55491c-0.1444,-0.53017 -0.2736,-1.10387 -0.3876,-1.72109l1.0602,-0.03561c-0.1292,0.6647 -0.266,1.26213 -0.4104,1.79231c-0.1444,0.53017 -0.2926,1.03661 -0.4446,1.51931c-0.152,0.48269 -0.323,0.98913 -0.513,1.51931c-0.19,0.52226 -0.3952,1.10387 -0.6156,1.74483l-3.96722,11.19301zM174.95692,212.6419l1.94941,-4.81905h10.71605l1.81261,4.81905zM196.48584,216.64197v-24.10711h10.68185c1.56561,0 2.96401,0.33631 4.19522,1.00891c1.2388,0.6647 2.20401,1.57074 2.89561,2.71813c0.6916,1.14739 1.0374,2.46491 1.0374,3.95257c0,1.60635 -0.3458,3.0307 -1.0374,4.27305c-0.6916,1.24235 -1.65681,2.21565 -2.89561,2.91992c-1.23121,0.69635 -2.62961,1.04452 -4.19522,1.04452h-4.53722v8.19001zM208.88909,216.64197l-5.89383,-10.8844l6.71463,-0.85461l6.55503,11.73901zM202.63047,203.5617h3.63662c0.5776,0 1.0564,-0.1187 1.43641,-0.35609c0.3876,-0.2453 0.6878,-0.58161 0.9006,-1.00891c0.2128,-0.4273 0.3192,-0.92583 0.3192,-1.49557c0,-0.55391 -0.1102,-1.0287 -0.3306,-1.42435c-0.2204,-0.40357 -0.5472,-0.71217 -0.9804,-0.92583c-0.4332,-0.22156 -0.969,-0.33235 -1.60741,-0.33235h-3.37442zM219.80131,216.64197v-24.10711h6.54363v18.2198h10.08905v5.88731zM239.77776,216.64197v-5.5787h4.03562v-12.94971h-4.03562v-5.5787h14.58067v5.5787h-4.00142v12.94971h4.00142v5.5787zM270.00013,216.98617c-1.91521,0 -3.63662,-0.30861 -5.16422,-0.92583c-1.52001,-0.62513 -2.81581,-1.49952 -3.88742,-2.62318c-1.06401,-1.12365 -1.87341,-2.45304 -2.42821,-3.98818c-0.5472,-1.54304 -0.8208,-3.20874 -0.8208,-4.99709c0,-1.81209 0.3002,-3.48174 0.9006,-5.00896c0.608,-1.52722 1.48581,-2.85266 2.63341,-3.97631c1.1476,-1.12365 2.49661,-1.99409 4.04702,-2.61131c1.55801,-0.62513 3.28702,-0.9377 5.18702,-0.9377c1.29961,0 2.52701,0.17409 3.68222,0.52226c1.15521,0.34026 2.19641,0.81109 3.12361,1.41248c0.92721,0.59348 1.72141,1.25817 2.38261,1.99409l-3.89882,4.33239c-0.4864,-0.48269 -0.9994,-0.89418 -1.53901,-1.23444c-0.5396,-0.34818 -1.1248,-0.62513 -1.75561,-0.83087c-0.6232,-0.20574 -1.32241,-0.30861 -2.09761,-0.30861c-0.85881,0 -1.64921,0.16617 -2.37121,0.49852c-0.7144,0.33235 -1.33761,0.7913 -1.86961,1.37687c-0.5244,0.58557 -0.9348,1.28587 -1.23121,2.10091c-0.2964,0.81504 -0.4446,1.70526 -0.4446,2.67065c0,0.94165 0.152,1.82 0.456,2.63505c0.3116,0.81504 0.741,1.52326 1.28821,2.12465c0.5548,0.59348 1.21221,1.05639 1.97221,1.38874c0.76,0.33235 1.58081,0.49852 2.46241,0.49852c0.6156,0 1.18941,-0.10287 1.72141,-0.30861c0.532,-0.20574 0.988,-0.48665 1.36801,-0.84274c0.3876,-0.35609 0.6916,-0.77943 0.912,-1.27004c0.2204,-0.49852 0.3306,-1.03265 0.3306,-1.60239v-0.97331l0.8664,1.44809h-6.08763v-4.96148h11.17205c0.0228,0.25322 0.0494,0.64096 0.0798,1.16322c0.038,0.51435 0.0608,1.02474 0.0684,1.53118c0.0152,0.49852 0.0228,0.85461 0.0228,1.06826c0,1.53513 -0.2774,2.95948 -0.8322,4.27305c-0.5472,1.30565 -1.3186,2.4293 -2.31421,3.37096c-0.988,0.94165 -2.15461,1.67757 -3.49982,2.20774c-1.34521,0.52226 -2.82341,0.78339 -4.43462,0.78339zM299.17271,216.64197v-24.10711h6.54363v24.10711zM285.15067,216.64197v-24.10711h6.54363v24.10711zM287.62447,207.62109l0.0342,-5.99414h15.11647v5.99414zM316.50068,216.64197v-18.2198h-7.01103v-5.88731h20.8051v5.88731h-7.25043v18.2198z" fill="#000000" stroke="#000000" stroke-linecap="square"/><path d="M89.88035,254.29079v-24.10711h16.82648v5.61431h-10.54505v12.87849h11.04665v5.61431zM92.98116,244.72392v-5.3057h12.40326v5.3057zM111.67451,254.29079v-24.10711h5.84823l11.25185,16.04766l-1.35661,-0.34422c-0.114,-0.8467 -0.209,-1.61426 -0.285,-2.3027c-0.076,-0.68844 -0.1444,-1.34126 -0.2052,-1.95848c-0.0532,-0.62513 -0.095,-1.24631 -0.1254,-1.86352c-0.0304,-0.62513 -0.0456,-1.3017 -0.0456,-2.0297c0,-0.73591 0,-1.56283 0,-2.48074v-5.06831h6.31563v24.10711h-5.92803l-12.09546,-17.22275l2.28001,0.59348c0.1064,0.94165 0.1976,1.7567 0.2736,2.44513c0.0836,0.68844 0.1444,1.30961 0.1824,1.86352c0.0456,0.546 0.0836,1.07222 0.114,1.57865c0.038,0.50643 0.0608,1.04848 0.0684,1.62613c0.0152,0.56974 0.0228,1.22257 0.0228,1.95848v7.15735zM143.85132,254.29079v-18.2198h-7.01103v-5.88731h20.80509v5.88731h-7.25042v18.2198zM161.41413,254.29079v-24.10711h16.82648v5.61431h-10.54505v12.87849h11.04665v5.61431zM164.51495,244.72392v-5.3057h12.40326v5.3057zM183.2083,254.29079v-24.10711h10.68185c1.56561,0 2.96401,0.33631 4.19522,1.00891c1.2388,0.6647 2.20401,1.57074 2.89561,2.71813c0.6916,1.14739 1.0374,2.46491 1.0374,3.95257c0,1.60635 -0.3458,3.0307 -1.0374,4.27305c-0.6916,1.24235 -1.65681,2.21565 -2.89561,2.91992c-1.23121,0.69635 -2.62961,1.04452 -4.19522,1.04452h-4.53722v8.19001zM195.61156,254.29079l-5.89383,-10.8844l6.71463,-0.85461l6.55503,11.73901zM189.35293,241.21054h3.63662c0.5776,0 1.0564,-0.1187 1.43641,-0.35609c0.3876,-0.2453 0.6878,-0.58161 0.9006,-1.00891c0.2128,-0.4273 0.3192,-0.92583 0.3192,-1.49557c0,-0.55391 -0.1102,-1.0287 -0.3306,-1.42435c-0.2204,-0.40357 -0.5472,-0.71217 -0.9804,-0.92583c-0.4332,-0.22156 -0.969,-0.33235 -1.60741,-0.33235h-3.37442zM211.15188,254.29079v-18.2198h-7.01103v-5.88731h20.8051v5.88731h-7.25043v18.2198zM223.91453,254.29079l9.23404,-24.10711h5.28962l9.15424,24.10711h-6.50943l-3.96722,-11.19301c-0.2204,-0.61722 -0.4218,-1.19092 -0.6042,-1.72109c-0.1748,-0.53017 -0.3382,-1.04452 -0.4902,-1.54304c-0.152,-0.50643 -0.3002,-1.02474 -0.4446,-1.55491c-0.1444,-0.53017 -0.2736,-1.10387 -0.3876,-1.72109l1.0602,-0.03561c-0.1292,0.6647 -0.266,1.26213 -0.4104,1.79231c-0.1444,0.53017 -0.2926,1.03661 -0.4446,1.51931c-0.152,0.48269 -0.323,0.98913 -0.513,1.51931c-0.19,0.52226 -0.3952,1.10387 -0.6156,1.74483l-3.96722,11.19301zM228.41755,250.29076l1.94941,-4.81905h10.71605l1.81261,4.81905zM249.65008,254.29079v-5.5787h4.03562v-12.94971h-4.03562v-5.5787h14.58067v5.5787h-4.00142v12.94971h4.00142v5.5787zM269.4587,254.29079v-24.10711h5.84823l11.25185,16.04766l-1.35661,-0.34422c-0.114,-0.8467 -0.209,-1.61426 -0.285,-2.3027c-0.076,-0.68844 -0.1444,-1.34126 -0.2052,-1.95848c-0.0532,-0.62513 -0.095,-1.24631 -0.1254,-1.86352c-0.0304,-0.62513 -0.0456,-1.3017 -0.0456,-2.0297c0,-0.73591 0,-1.56283 0,-2.48074v-5.06831h6.31563v24.10711h-5.92803l-12.09546,-17.22275l2.28001,0.59348c0.1064,0.94165 0.1976,1.7567 0.2736,2.44513c0.0836,0.68844 0.1444,1.30961 0.1824,1.86352c0.0456,0.546 0.0836,1.07222 0.114,1.57865c0.038,0.50643 0.0608,1.04848 0.0684,1.62613c0.0152,0.56974 0.0228,1.22257 0.0228,1.95848v7.15735zM296.34587,254.29079v-24.10711h5.72283l8.42464,14.29097l-4.45742,-0.03561l8.52724,-14.25536h5.52903v24.10711h-6.31563v-6.43331c0,-2.07322 0.0494,-3.93279 0.1482,-5.5787c0.0988,-1.65383 0.2698,-3.29578 0.513,-4.92587l0.7182,2.0297l-5.91663,9.53127h-2.17741l-5.79123,-9.53127l0.7296,-2.0297c0.2432,1.53513 0.4142,3.11379 0.513,4.73596c0.0988,1.61426 0.1482,3.53713 0.1482,5.76861v6.43331zM325.58117,254.29079v-24.10711h16.82648v5.61431h-10.54505v12.87849h11.04665v5.61431zM328.68198,244.72392v-5.3057h12.40326v5.3057zM347.37535,254.29079v-24.10711h5.84823l11.25185,16.04766l-1.35661,-0.34422c-0.114,-0.8467 -0.209,-1.61426 -0.285,-2.3027c-0.076,-0.68844 -0.1444,-1.34126 -0.2052,-1.95848c-0.0532,-0.62513 -0.095,-1.24631 -0.1254,-1.86352c-0.0304,-0.62513 -0.0456,-1.3017 -0.0456,-2.0297c0,-0.73591 0,-1.56283 0,-2.48074v-5.06831h6.31563v24.10711h-5.92803l-12.09546,-17.22275l2.28001,0.59348c0.1064,0.94165 0.1976,1.7567 0.2736,2.44513c0.0836,0.68844 0.1444,1.30961 0.1824,1.86352c0.0456,0.546 0.0836,1.07222 0.114,1.57865c0.038,0.50643 0.0608,1.04848 0.0684,1.62613c0.0152,0.56974 0.0228,1.22257 0.0228,1.95848v7.15735zM379.55213,254.29079v-18.2198h-7.01103v-5.88731h20.8051v5.88731h-7.25043v18.2198z" fill="#000000" stroke="#000000" stroke-linecap="square"/><path d="M237.60111,142.77738c-3.39928,0 -3.39928,-3.39928 -3.39928,-3.39928l0.00521,-3.43791c-0.34102,-3.06914 -0.45533,-6.1647 -0.45845,-9.25273c0,0 0,-3.39928 3.39928,-3.39928c3.39928,0 3.39928,3.39928 3.39928,3.39928c-0.00322,2.96269 0.12086,5.9322 0.44804,8.87676l0.0052,3.81388c0,0 0,3.39928 -3.39928,3.39928z" fill="#005d82" stroke="none" stroke-linecap="butt"/><path d="M172.67948,191.23495c-5.23367,0 -9.4764,-4.24273 -9.4764,-9.4764c0,-5.23367 4.24273,-9.4764 9.4764,-9.4764c5.23367,0 9.4764,4.24273 9.4764,9.4764c0,5.23367 -4.24273,9.4764 -9.4764,9.4764z" data-paper-data="{&quot;index&quot;:null}" fill="url(#color-3)" stroke="none" stroke-linecap="butt"/><path d="M294.81002,122.84394c-5.23367,0 -9.47639,-4.24273 -9.47639,-9.4764c0,-5.23367 4.24273,-9.47639 9.47639,-9.47639c5.23367,0 9.47639,4.24273 9.47639,9.47639c0,5.23367 -4.24273,9.4764 -9.47639,9.4764z" data-paper-data="{&quot;index&quot;:null}" fill="url(#color-4)" stroke="none" stroke-linecap="butt"/></g></g></svg>